<svg xmlns="http://www.w3.org/2000/svg" width="800" height="440" viewBox="0 0 800 440"><rect x="0" y="0" width="800" height="440" rx="0" fill="#deeee4" stroke="none"/><circle cx="696" cy="154" r="218" fill="#c5dfd3" stroke="none" stroke-width="1"/><circle cx="43" cy="450" r="190" fill="#d1e5da" stroke="none" stroke-width="1"/><text x="58" y="177" font-family="Arial,sans-serif" font-size="57" fill="#245145" font-weight="700" letter-spacing="-2">carepulse</text><text x="61" y="214" font-family="Arial,sans-serif" font-size="15" fill="#507568" font-weight="400" letter-spacing="0">Connected care, thoughtful workflows.</text><rect x="60" y="292" width="55" height="30" rx="6" fill="#f5fcf8" stroke="none"/><text x="73" y="312" font-family="Arial,sans-serif" font-size="10" fill="#517767" font-weight="400" letter-spacing="0.5">USER</text><rect x="133" y="292" width="97" height="30" rx="6" fill="#f5fcf8" stroke="none"/><text x="146" y="312" font-family="Arial,sans-serif" font-size="10" fill="#517767" font-weight="400" letter-spacing="0.5">SPECIALIST</text><rect x="250" y="292" width="62" height="30" rx="6" fill="#f5fcf8" stroke="none"/><text x="263" y="312" font-family="Arial,sans-serif" font-size="10" fill="#517767" font-weight="400" letter-spacing="0.5">ADMIN</text><circle cx="580" cy="217" r="109" fill="#e8f6ef" stroke="#a6cdbb" stroke-width="1"/><path d="M580 281c-45-31-78-63-78-95a38 38 0 0 1 78-6 38 38 0 0 1 78 6c0 32-33 64-78 95Z" fill="#8dc7ac"/><path d="M470 220h74l14-28 25 52 18-39 14 15h89" fill="none" stroke="#245145" stroke-width="5" stroke-linecap="round" stroke-linejoin="round"/><text x="61" y="362" font-family="Arial,sans-serif" font-size="10" fill="#628271" font-weight="400" letter-spacing="1">ASSESSMENTS · HISTORY · CONVERSATIONS</text></svg>