<svg xmlns="http://www.w3.org/2000/svg" width="800" height="440" viewBox="0 0 800 440"><rect x="0" y="0" width="800" height="440" rx="0" fill="#e9e2fa" stroke="none"/><circle cx="665" cy="65" r="230" fill="#ddd1fc" stroke="none" stroke-width="1"/><circle cx="60" cy="460" r="205" fill="#dfd4fb" stroke="none" stroke-width="1"/><text x="57" y="177" font-family="Arial,sans-serif" font-size="65" fill="#382168" font-weight="700" letter-spacing="-3">gitstack</text><text x="60" y="218" font-family="Arial,sans-serif" font-size="17" fill="#6b518c" font-weight="400" letter-spacing="0">learn. commit. collaborate.</text><g fill="none" stroke="#8b67dc" stroke-width="5" stroke-linecap="round"><path d="M470 125v186h184M470 231c0-47 105 5 105-52v-28M470 274c0-31 156 9 156-24v-14"/></g><circle cx="470" cy="125" r="15" fill="#f7f2ff" stroke="#6541d8" stroke-width="5"/><circle cx="470" cy="231" r="15" fill="#f7f2ff" stroke="#6541d8" stroke-width="5"/><circle cx="470" cy="311" r="15" fill="#f7f2ff" stroke="#6541d8" stroke-width="5"/><circle cx="575" cy="151" r="15" fill="#f7f2ff" stroke="#8e6dcb" stroke-width="5"/><circle cx="626" cy="236" r="15" fill="#f7f2ff" stroke="#9d85d0" stroke-width="5"/><circle cx="654" cy="311" r="15" fill="#f7f2ff" stroke="#50a877" stroke-width="5"/><rect x="552" y="99" width="144" height="34" rx="8" fill="#f9f5ff" stroke="none"/><text x="568" y="122" font-family="Arial,sans-serif" font-size="12" fill="#5b4181" font-weight="400" letter-spacing="0">feature / learning</text><rect x="513" y="334" width="161" height="35" rx="8" fill="#f9f5ff" stroke="none"/><text x="530" y="357" font-family="Arial,sans-serif" font-size="11" fill="#5b4181" font-weight="400" letter-spacing="0">main → collaboration</text><text x="60" y="362" font-family="Arial,sans-serif" font-size="10" fill="#796394" font-weight="400" letter-spacing="1.5">REAL GIT. REAL TEAMWORK.</text></svg>